<svg id="fast" xmlns="http://www.w3.org/2000/svg" width="36.036" height="27.838" viewBox="0 0 36.036 27.838">
  <g id="Group_15" data-name="Group 15" transform="translate(1.949 8.64)">
    <g id="Group_14" data-name="Group 14">
      <rect id="Rectangle_16" data-name="Rectangle 16" width="4.139" height="2.111" fill="#8f8980"/>
    </g>
  </g>
  <g id="Group_17" data-name="Group 17" transform="translate(1.949 17.086)">
    <g id="Group_16" data-name="Group 16">
      <rect id="Rectangle_17" data-name="Rectangle 17" width="4.139" height="2.111" fill="#8f8980"/>
    </g>
  </g>
  <g id="Group_19" data-name="Group 19" transform="translate(0 12.863)">
    <g id="Group_18" data-name="Group 18">
      <rect id="Rectangle_18" data-name="Rectangle 18" width="6.087" height="2.111" fill="#8f8980"/>
    </g>
  </g>
  <g id="Group_21" data-name="Group 21" transform="translate(8.199)">
    <g id="Group_20" data-name="Group 20">
      <path id="Path_13" data-name="Path 13" d="M130.408,58.245a13.919,13.919,0,1,0,13.919,13.919A13.934,13.934,0,0,0,130.408,58.245Zm0,25.726a11.807,11.807,0,1,1,11.807-11.807A11.82,11.82,0,0,1,130.408,83.971Z" transform="translate(-116.489 -58.245)" fill="#8f8980"/>
    </g>
  </g>
  <g id="Group_23" data-name="Group 23" transform="translate(20.688 7.623)">
    <g id="Group_22" data-name="Group 22">
      <path id="Path_14" data-name="Path 14" d="M296.041,173.377v-6.82H293.93v7.936l5.441,3.708,1.189-1.745Z" transform="translate(-293.93 -166.557)" fill="#8f8980"/>
    </g>
  </g>
</svg>
