<svg xmlns="http://www.w3.org/2000/svg" width="32.286" height="31.613" viewBox="0 0 32.286 31.613">
  <g id="Group_369" data-name="Group 369" transform="translate(0 0)">
    <g id="instagram" transform="translate(0 0)">
      <g id="Group_366" data-name="Group 366">
        <path id="Path_2253" data-name="Path 2253" d="M37.977,5.5H34.749A1.751,1.751,0,0,0,33,7.249v3.229a1.751,1.751,0,0,0,1.749,1.749h3.229a1.751,1.751,0,0,0,1.749-1.749V7.249A1.751,1.751,0,0,0,37.977,5.5Zm.4,4.977a.4.4,0,0,1-.4.4H34.749a.4.4,0,0,1-.4-.4V7.249a.4.4,0,0,1,.4-.4h3.229a.4.4,0,0,1,.4.4Z" transform="translate(-10.803 -2.137)" fill="#fff"/>
        <path id="Path_2254" data-name="Path 2254" d="M25.425.5H6.861A6.879,6.879,0,0,0,0,7.382V25.233a6.879,6.879,0,0,0,6.861,6.881H25.425a6.879,6.879,0,0,0,6.861-6.881V7.382A6.879,6.879,0,0,0,25.425.5Zm5.516,24.733a5.532,5.532,0,0,1-5.516,5.536H6.861a5.532,5.532,0,0,1-5.516-5.536V13.28h8.22a9.417,9.417,0,1,0,13.155,0h8.22Zm-6.726-5.226a8.072,8.072,0,1,1-8.072-8.072A8.081,8.081,0,0,1,24.215,20.007Zm-3.246-8.072a9.327,9.327,0,0,0-9.651,0H1.345V7.382A5.532,5.532,0,0,1,6.861,1.845H25.425a5.532,5.532,0,0,1,5.516,5.537v4.553Z" transform="translate(0 -0.5)" fill="#fff"/>
        <path id="Path_2255" data-name="Path 2255" d="M15,26.554A6.054,6.054,0,1,0,21.054,20.5,6.061,6.061,0,0,0,15,26.554Zm10.762,0a4.708,4.708,0,1,1-4.708-4.708A4.714,4.714,0,0,1,25.762,26.554Z" transform="translate(-4.911 -7.047)" fill="#fff"/>
      </g>
    </g>
  </g>
</svg>
