<svg id="calendar_1_" data-name="calendar (1)" xmlns="http://www.w3.org/2000/svg" width="34.781" height="34.781" viewBox="0 0 34.781 34.781">
  <g id="Group_409" data-name="Group 409">
    <g id="Group_408" data-name="Group 408">
      <path id="Path_2263" data-name="Path 2263" d="M30.705,2.717h-1.63V0H26.358V2.717H8.424V0H5.706V2.717H4.076A4.081,4.081,0,0,0,0,6.793V30.705a4.081,4.081,0,0,0,4.076,4.076H30.705a4.081,4.081,0,0,0,4.076-4.076V6.793A4.081,4.081,0,0,0,30.705,2.717Zm1.359,27.988a1.36,1.36,0,0,1-1.359,1.359H4.076a1.36,1.36,0,0,1-1.359-1.359V12.771H32.064Zm0-20.651H2.717V6.793A1.36,1.36,0,0,1,4.076,5.435h1.63V8.152H8.424V5.435H26.358V8.152h2.717V5.435h1.63a1.36,1.36,0,0,1,1.359,1.359Z" fill="#fff"/>
    </g>
  </g>
  <g id="Group_411" data-name="Group 411" transform="translate(5.163 15.624)">
    <g id="Group_410" data-name="Group 410">
      <rect id="Rectangle_93" data-name="Rectangle 93" width="2.717" height="2.717" fill="#fff"/>
    </g>
  </g>
  <g id="Group_413" data-name="Group 413" transform="translate(10.597 15.624)">
    <g id="Group_412" data-name="Group 412">
      <rect id="Rectangle_94" data-name="Rectangle 94" width="2.717" height="2.717" fill="#fff"/>
    </g>
  </g>
  <g id="Group_415" data-name="Group 415" transform="translate(16.032 15.624)">
    <g id="Group_414" data-name="Group 414">
      <rect id="Rectangle_95" data-name="Rectangle 95" width="2.717" height="2.717" fill="#fff"/>
    </g>
  </g>
  <g id="Group_417" data-name="Group 417" transform="translate(21.467 15.624)">
    <g id="Group_416" data-name="Group 416">
      <rect id="Rectangle_96" data-name="Rectangle 96" width="2.717" height="2.717" fill="#fff"/>
    </g>
  </g>
  <g id="Group_419" data-name="Group 419" transform="translate(26.901 15.624)">
    <g id="Group_418" data-name="Group 418">
      <rect id="Rectangle_97" data-name="Rectangle 97" width="2.717" height="2.717" fill="#fff"/>
    </g>
  </g>
  <g id="Group_421" data-name="Group 421" transform="translate(5.163 21.059)">
    <g id="Group_420" data-name="Group 420">
      <rect id="Rectangle_98" data-name="Rectangle 98" width="2.717" height="2.717" fill="#fff"/>
    </g>
  </g>
  <g id="Group_423" data-name="Group 423" transform="translate(10.597 21.059)">
    <g id="Group_422" data-name="Group 422">
      <rect id="Rectangle_99" data-name="Rectangle 99" width="2.717" height="2.717" fill="#fff"/>
    </g>
  </g>
  <g id="Group_425" data-name="Group 425" transform="translate(16.032 21.059)">
    <g id="Group_424" data-name="Group 424">
      <rect id="Rectangle_100" data-name="Rectangle 100" width="2.717" height="2.717" fill="#fff"/>
    </g>
  </g>
  <g id="Group_427" data-name="Group 427" transform="translate(21.467 21.059)">
    <g id="Group_426" data-name="Group 426">
      <rect id="Rectangle_101" data-name="Rectangle 101" width="2.717" height="2.717" fill="#fff"/>
    </g>
  </g>
  <g id="Group_429" data-name="Group 429" transform="translate(5.163 26.494)">
    <g id="Group_428" data-name="Group 428">
      <rect id="Rectangle_102" data-name="Rectangle 102" width="2.717" height="2.717" fill="#fff"/>
    </g>
  </g>
  <g id="Group_431" data-name="Group 431" transform="translate(10.597 26.494)">
    <g id="Group_430" data-name="Group 430">
      <rect id="Rectangle_103" data-name="Rectangle 103" width="2.717" height="2.717" fill="#fff"/>
    </g>
  </g>
  <g id="Group_433" data-name="Group 433" transform="translate(16.032 26.494)">
    <g id="Group_432" data-name="Group 432">
      <rect id="Rectangle_104" data-name="Rectangle 104" width="2.717" height="2.717" fill="#fff"/>
    </g>
  </g>
  <g id="Group_435" data-name="Group 435" transform="translate(21.467 26.494)">
    <g id="Group_434" data-name="Group 434">
      <rect id="Rectangle_105" data-name="Rectangle 105" width="2.717" height="2.717" fill="#fff"/>
    </g>
  </g>
  <g id="Group_437" data-name="Group 437" transform="translate(26.901 21.059)">
    <g id="Group_436" data-name="Group 436">
      <rect id="Rectangle_106" data-name="Rectangle 106" width="2.717" height="2.717" fill="#fff"/>
    </g>
  </g>
</svg>
