<svg xmlns="http://www.w3.org/2000/svg" width="50.842" height="38" viewBox="0 0 50.842 38">
  <g id="mortarboard_1_" data-name="mortarboard (1)" transform="translate(0 -64.662)">
    <g id="Group_346" data-name="Group 346" transform="translate(0 64.662)">
      <path id="Path_2165" data-name="Path 2165" d="M50.256,76.955,25.895,64.774a1.059,1.059,0,0,0-.947,0L.586,76.955a1.059,1.059,0,0,0,0,1.895L8.65,82.882v8.094c0,5,7.367,8.915,16.771,8.915s16.771-3.916,16.771-8.915V82.882l2.815-1.407V89.2a3.292,3.292,0,0,0-.354,6.091l-2.25,5.937a1.059,1.059,0,0,0,.991,1.435h5.346a1.059,1.059,0,0,0,.991-1.434l-2.25-5.937a3.292,3.292,0,0,0-.354-6.091V80.415l3.132-1.566a1.059,1.059,0,0,0,0-1.895Zm-14.2,18.629a24.372,24.372,0,0,1-10.636,2.189,24.371,24.371,0,0,1-10.636-2.189c-2.552-1.276-4.016-2.956-4.016-4.608V83.941l14.179,7.089a1.059,1.059,0,0,0,.947,0l14.179-7.089v7.035h0C40.073,92.628,38.609,94.308,36.057,95.584Zm8.87,4.96,1.139-3,1.139,3Zm2.313-8.227a1.175,1.175,0,1,1-1.18-1.174h.01A1.176,1.176,0,0,1,47.241,92.317Zm-1.39-13.633L25.516,76.848a1.059,1.059,0,0,0-.191,2.11l16.922,1.528L25.421,88.9,3.428,77.9l21.993-11,21.993,11Z" transform="translate(0 -64.662)" fill="#fff"/>
    </g>
  </g>
</svg>
