<svg id="Group_170" data-name="Group 170" xmlns="http://www.w3.org/2000/svg" width="37.765" height="34.91" viewBox="0 0 37.765 34.91">
  <path id="Path_8" data-name="Path 8" d="M-2535.807,2340.753a2.63,2.63,0,0,1,.435-2.054,6.2,6.2,0,0,1,4.233-2.3c4.668-.774,9.035,2.391,9.063,6.777.014,2.2-2.24,5.321-4.782,6.54a8.744,8.744,0,0,1-5.429.41s3.914-.4,6.161-2.513c2.588-2.9,2.24-4.8,1.8-6.219a5.008,5.008,0,0,0-1.652-2.311,7.4,7.4,0,0,0-4.486-1.395C-2535.156,2337.51-2535.807,2340.753-2535.807,2340.753Z" transform="translate(2559.84 -2327.867)" fill="#f88d02"/>
  <path id="Path_9" data-name="Path 9" d="M-2863.724,2144.014a6.616,6.616,0,0,1,2.011-5.434c2.423-2.034,4.349-2.734,8.822-2.708a10.588,10.588,0,0,1,8.046,4.155,7.46,7.46,0,0,1,.8,5.355s-.635-3.808-3.131-5.817a10.623,10.623,0,0,0-6.78-2.051,12.027,12.027,0,0,0-6.583,1.718A9.043,9.043,0,0,0-2863.724,2144.014Z" transform="translate(2872.623 -2135.871)" fill="#f88d02"/>
  <path id="Path_10" data-name="Path 10" d="M-3044.352,2326.026s-2.048-3-6.875-1.467c-3.511,1.534-4.9,3.449-5.083,6.583a6.1,6.1,0,0,0,3.8,6.13c2.048.8,5.652-.524,5.652-.524s-4.537.366-6.046-1.118-1.519-3.818-1.519-4.744-.084-3.437,3.686-5.027A6.98,6.98,0,0,1-3044.352,2326.026Z" transform="translate(3056.323 -2316.216)" fill="#f88d02"/>
  <path id="Path_11" data-name="Path 11" d="M-2891.806,2566.246s1.829-2.409,7.286-2.614a27.168,27.168,0,0,1,10.747,2.2s-5.64-1.724-9.818-1.384a12.8,12.8,0,0,0-6.892,2.742,10.138,10.138,0,0,1,1.631,4.844,26.312,26.312,0,0,1-.759,6.816s6.505-.154,11.224.256a36.766,36.766,0,0,1,7.652,1.384s-6.048-.538-11.281-.538a89.445,89.445,0,0,0-9.649.538,30.117,30.117,0,0,0,1.182-7.559C-2890.484,2566.758-2891.806,2566.246-2891.806,2566.246Z" transform="translate(2899.386 -2545.653)" fill="#f88d02"/>
  <path id="Path_12" data-name="Path 12" d="M-2489.931,2583.916a33.378,33.378,0,0,0-.6,7.35,50.578,50.578,0,0,0,1.17,8.28s-2.39-2.24-2.6-7.892S-2489.931,2583.916-2489.931,2583.916Z" transform="translate(2517.971 -2564.637)" fill="#f88d02"/>
</svg>
