<svg id="coin" xmlns="http://www.w3.org/2000/svg" width="37.65" height="37.65" viewBox="0 0 37.65 37.65">
  <path id="Path_2163" data-name="Path 2163" d="M18.825,0A18.825,18.825,0,1,0,37.65,18.825,18.847,18.847,0,0,0,18.825,0Zm0,35.173A16.348,16.348,0,1,1,35.173,18.825,16.366,16.366,0,0,1,18.825,35.173Z" fill="#fff"/>
  <path id="Path_2164" data-name="Path 2164" d="M79.494,40.517V33.483a3.563,3.563,0,0,1,1.738,1.384A1.239,1.239,0,1,0,83.3,33.5a6.03,6.03,0,0,0-3.807-2.592V28.945a1.239,1.239,0,0,0-2.478,0v1.964a6.043,6.043,0,0,0,0,11.831v7.033a3.563,3.563,0,0,1-1.738-1.384,1.239,1.239,0,1,0-2.069,1.362,6.03,6.03,0,0,0,3.807,2.592v1.968a1.239,1.239,0,0,0,2.478,0V52.348a6.043,6.043,0,0,0,0-11.831Zm-4.808-3.692a3.568,3.568,0,0,1,2.33-3.34v6.68A3.568,3.568,0,0,1,74.687,36.824Zm4.808,12.948v-6.68a3.559,3.559,0,0,1,0,6.68Z" transform="translate(-59.43 -22.803)" fill="#fff"/>
</svg>
