<svg xmlns="http://www.w3.org/2000/svg" width="32.233" height="32.211" viewBox="0 0 32.233 32.211">
  <g id="call" transform="translate(0.271 0.347)">
    <g id="Group_365" data-name="Group 365" transform="translate(0 0)">
      <g id="Group_364" data-name="Group 364" transform="translate(0 0)">
        <path id="Path_2252" data-name="Path 2252" d="M30.787,24.39l-6.4-4.268a1.868,1.868,0,0,0-2.5.406l-1.864,2.4A.8.8,0,0,1,19,23.14l-.355-.2a21.429,21.429,0,0,1-5.585-4.386,21.517,21.517,0,0,1-4.387-5.585l-.194-.355a.8.8,0,0,1,.211-1.025l2.4-1.864a1.869,1.869,0,0,0,.407-2.5L7.225.83a1.858,1.858,0,0,0-2.5-.564L2.045,1.873A3.775,3.775,0,0,0,.324,4.107c-.964,3.511-.239,9.571,8.687,18.5,7.1,7.1,12.387,9.01,16.02,9.01a9.334,9.334,0,0,0,2.476-.323,3.771,3.771,0,0,0,2.234-1.721L31.35,26.9A1.858,1.858,0,0,0,30.787,24.39Zm-.345,1.965-1.605,2.676a2.723,2.723,0,0,1-1.607,1.246c-3.241.89-8.9.153-17.473-8.417S.45,7.628,1.34,4.386A2.727,2.727,0,0,1,2.587,2.777L5.263,1.172a.806.806,0,0,1,1.087.244L8.668,4.9l1.946,2.918A.811.811,0,0,1,10.438,8.9l-2.4,1.864a1.844,1.844,0,0,0-.488,2.367l.19.346A22.351,22.351,0,0,0,12.311,19.3a22.374,22.374,0,0,0,5.827,4.566l.346.191a1.844,1.844,0,0,0,2.367-.488l1.863-2.4A.811.811,0,0,1,23.8,21l6.4,4.268A.806.806,0,0,1,30.442,26.355Z" transform="translate(0 0)" fill="#fff" stroke="#fff" stroke-width="0.5"/>
      </g>
    </g>
  </g>
</svg>
